<svg transform="scale(1)" version="1.1" id="BEPxeQi4HB" xmlns="http://www.w3.org/2000/svg" xmlns:xlink="http://www.w3.org/1999/xlink" x="0px" y="0px" width="500px" height="500px" viewBox="0 0 500 500" xml:space="preserve" class="pbimage_pbimage__wrapper__image__0LEis false"><title>Business Deal</title><style type="text/css"> .st0{fill:#000001;} .st1{fill:#005596;} .st2{fill:#FFB0CC;} .st3{fill:#FFDC32;}
 .st3{fill:#FFE01B;}
 .st2{fill:#241C15;}
 .st1{fill:#241C15;}
 .st0{fill:#000001;}</style><g id="character"><path class="st0" d="M124.07,146.25c0.61-0.89,1.55-1.53,2.06-2.48c0.46-0.85,0.52-1.85,0.47-2.81c-0.19-3.61-1.87-7.11-4.57-9.51
		c-1.44-1.27-3.13-2.23-4.86-3.06c-11.15-5.33-24.37-5.45-36.16-1.74c-1.51,0.48-3.06,1.05-4.16,2.18c-0.9,0.92-1.45,2.15-2.42,3
		c-0.68,0.6-1.52,0.98-2.23,1.54c-1.99,1.58-2.61,4.29-3.09,6.79c0,0,1.95,46.98,2.05,46.56c0.24,1.59,1.31,3.09,2.83,3.63
		c1.52,0.53,3.43-0.09,4.16-1.52l26.16-22.15L124.07,146.25z" fill="#000001"></path><path class="st1" d="M353.64,155.08c-4.22-4.53-7.17-10.22-8.45-16.27c-0.59-2.81-0.81-5.8,0.17-8.49s3.41-5.01,6.28-5.15
		c2.75-0.14,5.33,1.66,8.18,1.52c9.22-4.64,19.79-8.14,29.77-5.49c3.63,0.96,7.13,2.72,10.88,2.7c1.16-0.01,2.4-0.16,3.39,0.45
		c1.89,1.17,1.41,4.09,2.54,6c0.47,0.79,1.2,1.38,1.76,2.1c1.04,1.33,1.46,3.11,1.13,4.76c-0.19,0.93-0.6,1.85-0.47,2.79
		c0.12,0.85,0.66,1.58,1.03,2.36c1.05,2.24,0.59,4.88,0.03,7.29c-2.46,10.78-6.21,21.55-5.45,32.59c0.11,1.57,0.31,3.14,0.11,4.7
		c-0.2,1.56-0.85,3.14-2.12,4.06l-19.04-13.59L353.64,155.08z" fill="#241C15"></path><path class="st2" d="M380.07,219.38c0.27-1.79-0.56-3.71,0.14-5.38c0.33-0.78,0.98-1.41,1.77-1.71l24.69-8.78
		c0,0,2.73,2.09,2.94,2.33c0.26,1.73,0.67,3.44,1.22,5.11c0.13,0.4,0.28,0.82,0.56,1.14c0.25,0.28,0.58,0.47,0.88,0.69
		c1.36,1.02,2,2.75,2.32,4.43c0.32,1.68,0.39,3.41,0.94,5.02l32.51,56.93l0.18-0.12c0,0-0.47,8.75-0.63,9.68
		c-0.19,1.48-0.41,3.02-1.27,4.23c-0.44,0.63-1.04,1.14-1.68,1.57l-14.27,15.08c0,0-1.81,18.84-1.66,19.22
		c0.27,2.52,1.62,4.89,3.64,6.42c0.79,0.6,1.77,1.24,1.79,2.23c0.01,0.38-0.14,0.74-0.28,1.09c-2.33,5.78-4.01,11.82-5.01,17.97
		c0,0-8.56,5.71-8.7,5.69c-7.32,2.64-14.85,4.72-22.48,6.24c-3.64,0.72-7.33,1.31-11.04,1.33c-2.13,0.01-4.26-0.17-6.38-0.37
		c-6.68-0.65-13.52-1.64-19.4-4.89c0,0-3.26-7.44-3.43-7.66c-1.18-5.29,4.11-10.42,3-15.73c-0.24-1.16-0.79-2.25-0.98-3.42
		c-0.28-1.7,0.21-3.42,0.9-5.38c3.2-7.93,3.31-16.71,3.51-25.26c0.18-7.77,0.48-15.56,1.64-23.25l0.1-7.28
		c0,0-17.04,17.97-17.01,18.13c-1.64,1.15-3.4,2.33-5.4,2.44l-80.23,26.49l-8.08-19.19l76.23-28.94c0,0,39.19-52.23,39.42-52.52
		C373.05,220.93,376.19,219.68,380.07,219.38z" fill="#241C15"></path><path class="st0" d="M380.96,224.68c-0.28-0.58-0.63-1.21-1.25-1.38c-0.3-0.08-0.63-0.04-0.93,0.05c-1.33,0.39-2.29,1.63-2.67,2.96
		c-0.39,1.33-0.29,2.76,0,4.36c-1.27,1.72-2.03,3.78-2.47,5.88c-0.44,2.09-0.59,4.24-0.77,6.92c-0.7,10.52-1.78,21.06-4.17,31.33
		c-2.4,10.27-6.15,20.31-11.9,29.14c-3.39,5.2-7.43,9.93-11.46,14.64l0.9,17.04c0,0,10.93-9.95,11.41-10.37
		c1.97-6.39,5.92-11.95,8.93-17.92c4.15-8.25,6.5-17.31,7.84-26.44c1.34-9.13,1.7-18.38,2.06-27.61l0.53-12.82l-0.07-0.14v-0.07
		l0.42-10.86L380.96,224.68z" fill="#000001"></path><path class="st2" d="M65.87,211.56c-0.26-3.24,1.02-6.39,2.28-9.39c0.1-0.25,0.21-0.51,0.41-0.69c0.24-0.22,0.57-0.31,0.89-0.38
		c1.46-0.35,2.92-0.7,4.37-1.05l20.86,11.02l2.61,2.06c0,0,1.7,8.44,2.14,9.6c1.03,6.24,1.86,12.52,2.5,18.81l15.13,44.91
		l-5.77,16.86l-5.32,2.12L91.04,263.7L65.87,211.56z" fill="#241C15"></path><path class="st1" d="M66.09,209.03c4.56,1.53,9.12,3.06,13.68,4.6c1.65,0.55,3.31,1.11,4.81,1.98c1.35,0.78,2.55,1.79,3.89,2.64
		c1.51,1.08,3.02,2.15,4.53,3.23c0.28,0.2,0.57,0.41,0.79,0.67c0.21,0.26,0.35,0.57,0.5,0.87c0.96,1.9,2.43,3.53,4.2,4.7
		c0.11,0.07,0.26,0.14,0.37,0.06c0.06-0.05,0.08-0.13,0.1-0.21c0.49-2.51,0.28-5.16-0.61-7.56l8.95,4.07l15.16,29.08l25.24,26.34
		c0,0,76.25,26.21,76.09,26.37c0.51,1.48,0.22,3.11-0.13,4.63c-0.73,3.16-1.68,6.26-2.87,9.28c-0.88,2.23-1.91,4.47-3.61,6.16
		c-1.04,1.03-2.71,1.84-3.9,0.99l-83.28-23.73l-29.1-25.69l8.9,23.45l3.89-12.31l16.74,14.23l3.62,1.07c0,0-11.06,32.45-11.11,32.71
		c2.71,11.09,6.46,21.91,11.19,32.3c0.39,0.86,0.79,1.87,0.37,2.72c-0.31,0.62-0.99,0.97-1.62,1.25c-2.2,0.98-4.49,1.78-6.83,2.38
		c-2.5,0.64-5.46,0.95-7.36-0.79c-0.29-0.27-0.56-0.58-0.94-0.7c-0.44-0.14-0.92,0.03-1.35,0.2c-5.86,2.3-11.84,4.43-18.08,5.26
		c-4.52,0.6-9.11,0.51-13.66,0.24c-6.99-0.4-13.95-1.2-20.91-2.04c-3.27-0.4-6.65-0.84-9.45-2.57c-1.71-1.06-3.21-2.75-3.31-4.76
		l7.25-63.74c0,0-6.05-61.51-5.92-61.22c-0.39-5.95,1.52-11.78,3.4-17.44c0.81-2.43,1.63-4.89,2.96-7.08
		c1.06-1.75,2.44-3.33,3.24-5.22c0.53-1.24,0.79-2.59,1.33-3.83C63.78,210.38,64.74,208.58,66.09,209.03z" fill="#241C15"></path><path class="st3" d="M123.67,143.51c0.07,6.73-0.15,13.47-0.66,20.18c-0.26,3.35-0.59,6.72-1.56,9.94l2.42,5.94l4.64,6.08
		l-9.14-2.2c0,0-3.44,10.77-3.47,10.7c-0.66,1.43-1.37,2.84-2.13,4.22c-0.48,0.87-0.99,1.74-1.74,2.39
		c-1.2,1.02-2.99,1.31-4.45,0.71l-7.52-2.28l-5.19,15.14l-24.31-13.14l4.63-14.51l4.73-7.43l5.77-6.31l1.58-1.36
		c0,0-2.02-2.06-1.85-2.25c-1.19-2.93-1.18-6.23-0.67-9.35c0.28-1.73,0.74-3.48,1.82-4.86s2.92-2.28,4.6-1.82
		c1.21,0.33,2.16,1.3,2.75,2.4c0.6,1.1,0.88,2.34,1.16,3.55c0,0,4.03-6.24,4.08-6.29c0.62-0.46,1.29-0.94,2.06-1.02
		c0.34-0.03,0.68,0.01,1.01-0.06c0.39-0.09,0.73-0.35,1.04-0.59c0.75-0.59,1.54-1.22,1.89-2.11c0.18-0.45,0.22-0.95,0.29-1.43
		c0.12-0.92,0.31-1.86,0.77-2.67s1.23-1.49,2.15-1.63l6.54-0.6L123.67,143.51z" fill="#FFE01B"></path><path class="st3" d="M223.9,308.28c-1.35,4.17-2.7,8.34-4.06,12.52c-0.15,0.47-0.31,0.97-0.22,1.47c0.07,0.38,0.28,0.71,0.41,1.07
		c0.47,1.35-0.3,2.82-0.17,4.24c0.16,1.71,1.85,3.13,3.56,3c0.58-0.04,1.14-0.24,1.71-0.24c0.98,0,1.86,0.54,2.76,0.93
		c2,0.88,4.29,1.09,6.41,0.57c0,0,3.72,0.81,4.13,0.78c0.79-0.06,1.67-0.16,2.17-0.78c0.37-0.45,0.48-1.13,1.15-1.64
		c0.87,0.15,1.69-0.47,2.25-1.15s1.02-1.48,1.77-1.95c0.58-0.36,1.29-0.49,1.9-0.79c0.89-0.44,1.55-1.22,2.18-1.99
		c-0.35,0.42-0.51,1-0.42,1.54c2.3-0.19,4.58-0.79,6.68-1.75l6.13-1.44l-6.91-16.89l-6.39,1.74l-1.5-1.66c0,0-5.98-3.27-6.29-3.19
		c-1.05,0.68-2.18,1.38-3.44,1.37c-0.53-0.01-1.04-0.14-1.57-0.17c-1.47-0.09-2.88,0.62-4.07,1.49c-1.19,0.87-2.25,1.92-3.52,2.68
		S225.73,309.21,223.9,308.28z" fill="#FFE01B"></path><path class="st3" d="M353.45,143.01c-1.88,10-1.28,20.46,1.71,30.18l-6.5,12.42l7.69-3.08c0,0,2.39,5.53,2.66,5.94
		c0.58,3.69,2.08,7.22,4.32,10.21c0.56,0.75,1.19,1.48,1.96,2.01c1.57,1.07,3.63,1.2,5.49,0.79c1.86-0.41,3.56-1.32,5.24-2.21
		l5.1,13.23l0.63,0.17l25.18-9c0,0-8.54-23.41-8.68-23.94c-1.82-3.34-4.82-6.02-8.33-7.47c0,0,1.63-1.62,1.64-1.93
		c1.96-3.66,1.64-8.19,0.22-12.08c-0.58-1.58-1.37-3.16-2.72-4.16c-1.35-1.01-3.36-1.27-4.68-0.23c-0.5,0.39-0.86,0.93-1.16,1.49
		c-0.61,1.12-1.01,2.35-1.19,3.61c-0.06,0.45-0.17,1-0.6,1.13c-0.53,0.16-0.94-0.46-1.15-0.97c-0.84-2.05-1.68-4.09-2.53-6.14
		l-8.5-1.26l-7.63-4l-4.88-5.34L353.45,143.01z" fill="#FFE01B"></path><path class="st3" d="M400.8,313.6c0.8,5.27,3.79,10.18,8.1,13.31c0.44,0.32,0.88,0.62,1.28,0.98c0,0-2.73,3.95-2.88,4.07
		c-1.52,0.45-3.17,0.89-4.64,0.31c-0.38-0.15-0.73-0.36-1.05-0.61c0,0-3.37,8.08-3.46,8c-0.6,0.95-1.32,2-2.42,2.2l1.24-12.4
		c0,0-8.32,8.79-8.4,8.78c-0.67,0.39-1.36,0.75-2.06,1.07c-0.32,0.14-0.76,0.25-0.96-0.04l5.28-12.03c0,0-8.15,3.8-8.7,3.8
		c-0.86,0.15-1.71,0.3-2.57,0.46c-0.43,0.08-0.87,0.15-1.3,0.07c-0.43-0.08-0.85-0.36-0.97-0.78l10.24-8.73
		c0,0-12.97-2.57-13.11-2.66c0.01-1.2,1.11-2.28,2.31-2.27c0,0,11.15,0.41,11.4,0.38c3.57-0.42,7.07-1.32,10.4-2.67
		C399.27,314.55,400.01,314.22,400.8,313.6z" fill="#FFE01B"></path><ellipse class="st0" transform="matrix(0.1773 -0.9842 0.9842 0.1773 -67.0793 244.8044)" cx="112.89" cy="162.53" rx="2.84" ry="1.38" fill="#000001"></ellipse><ellipse class="st0" transform="matrix(0.1773 -0.9842 0.9842 0.1773 -59.9057 253.3861)" cx="121.61" cy="162.53" rx="2.84" ry="1.38" fill="#000001"></ellipse><ellipse class="st0" transform="matrix(0.9601 -0.2796 0.2796 0.9601 -30.9391 108.1656)" cx="363.64" cy="162.52" rx="1.36" ry="2.75" fill="#000001"></ellipse><ellipse class="st0" transform="matrix(0.9601 -0.2796 0.2796 0.9601 -31.5137 105.6373)" cx="354.49" cy="163.27" rx="1.36" ry="2.75" fill="#000001"></ellipse><path class="st0" d="M366.34,177.33c1.31,0.22,2.46,1.04,3.26,2.1c0.8,1.05,1.27,2.33,1.55,3.62c0.08,0.38,0.13,0.82-0.14,1.1
		c-0.22,0.22-0.56,0.24-0.87,0.25c-1.62,0.01-3.31-0.11-4.8,0.52c-1.01,0.43-1.88,1.2-2.95,1.44c-0.74,0.17-1.53,0.07-2.25,0.3
		c-0.6,0.2-1.15,0.62-1.77,0.58c-0.59-0.03-1.08-0.47-1.42-0.95c-0.78-1.07-1.11-2.45-0.89-3.76L366.34,177.33z" fill="#000001"></path><path class="st0" d="M388.7,189.97c0.33,1,0.25,2.08,0.09,3.12c-0.87,5.73-4.08,11.31-9.22,13.99l-3.16-7.91l4.58-3.29
		L388.7,189.97z" fill="#000001"></path><path class="st0" d="M88.51,191.03c-0.63,6.48,2.76,13.18,8.36,16.51l3.04-8.13l-4.56-2.73L88.51,191.03z" fill="#000001"></path><path class="st0" d="M121.84,173.13c-0.02,0-0.05,0-0.08-0.01c-0.27-0.04-0.46-0.3-0.42-0.57c1.49-9.85,2.08-19.23,1.8-28.67
		c-4.05-0.82-8.27-0.65-12.36-0.48c-1.49,0.06-2.79,0.18-3.71,0.96c-0.96,0.81-1.27,2.19-1.57,3.53l-0.11,0.46
		c-0.53,2.26-1.51,3.63-2.92,4.06c-0.38,0.12-0.75,0.15-1.12,0.19c-0.41,0.04-0.8,0.08-1.12,0.23c-0.48,0.23-0.84,0.71-1.17,1.2
		c-0.84,1.25-1.57,2.55-2.35,3.94c-0.4,0.72-0.81,1.45-1.24,2.18c-0.11,0.19-0.34,0.29-0.55,0.23c-0.22-0.05-0.37-0.25-0.38-0.47
		c-0.06-1.88-0.44-3.33-1.14-4.42c-0.71-1.1-2.12-2.13-3.62-1.94c-1.5,0.19-2.58,1.48-3.1,2.23c-1.56,2.28-2.21,5.4-1.92,9.27
		c0.11,1.47,0.36,3.34,1.35,4.81c0.79,1.17,2.38,2.27,4,1.91c0.27-0.06,0.54,0.11,0.6,0.38s-0.11,0.54-0.38,0.6
		c-1.78,0.39-3.86-0.56-5.05-2.33c-1.12-1.66-1.4-3.7-1.52-5.29c-0.3-4.1,0.4-7.43,2.09-9.91c1.05-1.54,2.4-2.48,3.8-2.66
		c1.68-0.21,3.52,0.75,4.59,2.38c0.58,0.9,0.97,1.99,1.16,3.31c0.15-0.26,0.29-0.52,0.44-0.78c0.78-1.4,1.52-2.73,2.39-4.01
		c0.39-0.57,0.86-1.21,1.57-1.54c0.48-0.22,0.97-0.27,1.45-0.32c0.33-0.03,0.64-0.06,0.92-0.15c1.04-0.32,1.8-1.44,2.24-3.34
		l0.1-0.46c0.32-1.43,0.69-3.04,1.9-4.07c1.26-1.06,3.03-1.14,4.32-1.19c4.28-0.18,8.7-0.36,13,0.58c0.22,0.05,0.38,0.24,0.39,0.47
		c0.31,9.62-0.28,19.19-1.8,29.24C122.29,172.95,122.08,173.13,121.84,173.13z" fill="#000001"></path><path class="st0" d="M91.1,164.05c-0.03,0-0.05,0-0.08-0.01c-0.27-0.04-0.46-0.3-0.42-0.57c0.28-1.73-0.39-3.61-1.7-4.78
		c-0.21-0.18-0.22-0.5-0.04-0.71s0.5-0.22,0.71-0.04c1.56,1.39,2.35,3.62,2.03,5.68C91.55,163.88,91.34,164.05,91.1,164.05z" fill="#000001"></path><path class="st0" d="M89.54,167.11c-0.2,0-0.39-0.12-0.47-0.32c-0.66-1.78-0.7-3.75-0.11-5.55c0.09-0.26,0.37-0.41,0.63-0.32
		c0.26,0.09,0.4,0.37,0.32,0.63c-0.52,1.58-0.49,3.32,0.1,4.88c0.1,0.26-0.03,0.55-0.29,0.64C89.66,167.1,89.6,167.11,89.54,167.11z
		" fill="#000001"></path><path class="st0" d="M129.31,186.49c-0.04,0-0.09-0.01-0.13-0.02l-17.11-4.67c-0.27-0.07-0.42-0.35-0.35-0.61
		c0.07-0.27,0.35-0.42,0.61-0.35l15.25,4.16c-6.25-6.51-9.52-15.85-8.59-24.84c0.03-0.27,0.28-0.47,0.55-0.45
		c0.27,0.03,0.47,0.27,0.45,0.55c-0.96,9.32,2.74,19.04,9.66,25.36c0.17,0.16,0.21,0.41,0.1,0.61
		C129.66,186.39,129.49,186.49,129.31,186.49z" fill="#000001"></path><path class="st0" d="M108.98,202.37c-0.77,0-1.53-0.12-2.19-0.25c-5.94-1.19-11.73-4.51-18.24-10.45c-0.2-0.19-0.22-0.5-0.03-0.71
		c0.19-0.2,0.5-0.22,0.71-0.03c6.36,5.81,12,9.06,17.76,10.21c1.27,0.25,2.9,0.45,4.15-0.28c1.02-0.6,1.67-1.74,2.25-2.86
		c2.33-4.54,4.2-9.33,5.56-14.25c0.07-0.27,0.35-0.42,0.62-0.35c0.27,0.07,0.42,0.35,0.35,0.62c-1.38,4.98-3.27,9.84-5.63,14.44
		c-0.64,1.25-1.38,2.54-2.63,3.27C110.81,202.21,109.89,202.37,108.98,202.37z" fill="#000001"></path><path class="st0" d="M94.74,215c-0.08,0-0.16-0.02-0.24-0.06l-24.24-13.08c-0.21-0.11-0.31-0.36-0.24-0.59
		c1.74-5.45,4.37-13.75,4.47-14.3c0.01-0.04,0.02-0.09,0.04-0.13c2.69-5.78,6.77-10.89,11.82-14.78c0.22-0.17,0.53-0.13,0.7,0.09
		c0.17,0.22,0.13,0.53-0.09,0.7c-4.91,3.78-8.89,8.74-11.5,14.36c-0.29,1.22-3.58,11.52-4.36,13.98l23.36,12.6l4.91-14.5
		c0.09-0.26,0.38-0.4,0.63-0.31c0.26,0.09,0.4,0.37,0.31,0.63l-5.1,15.06c-0.05,0.14-0.15,0.25-0.29,0.31
		C94.86,214.99,94.8,215,94.74,215z" fill="#000001"></path><path class="st0" d="M116.54,158.74c-0.07,0-0.15-0.02-0.22-0.05c-2.16-1.04-4.65-1.41-7.01-1.05c-0.27,0.04-0.53-0.15-0.57-0.42
		c-0.04-0.27,0.15-0.53,0.42-0.57c2.56-0.39,5.26,0.02,7.59,1.14c0.25,0.12,0.35,0.42,0.23,0.67
		C116.91,158.64,116.73,158.74,116.54,158.74z" fill="#000001"></path><path class="st0" d="M120.58,158.62c-0.16,0-0.31-0.07-0.41-0.21c-0.16-0.23-0.11-0.54,0.12-0.7c0.8-0.56,1.73-0.93,2.7-1.06
		c0.28-0.04,0.52,0.16,0.56,0.43s-0.16,0.52-0.43,0.56c-0.81,0.11-1.59,0.41-2.25,0.88C120.78,158.59,120.68,158.62,120.58,158.62z" fill="#000001"></path><path class="st0" d="M108.16,186.71c-0.15,0-0.3-0.07-0.4-0.2c-1.63-2.19-2.07-5.15-1.14-7.72c0.09-0.26,0.38-0.39,0.64-0.3
		c0.26,0.09,0.39,0.38,0.3,0.64c-0.81,2.22-0.41,4.89,1,6.78c0.17,0.22,0.12,0.53-0.1,0.7
		C108.37,186.67,108.26,186.71,108.16,186.71z" fill="#000001"></path><path class="st0" d="M75.12,212.88c-0.05,0-0.11-0.01-0.16-0.03l-8.9-3.06c-0.24-0.08-0.38-0.32-0.33-0.57l1.3-6.64
		c0.37-1.29,1.52-2.25,2.82-2.36c0.27-0.03,0.52,0.18,0.54,0.46c0.02,0.28-0.18,0.52-0.46,0.54c-0.88,0.08-1.69,0.75-1.93,1.59
		l-1.21,6.18l8.49,2.92c0.26,0.09,0.4,0.37,0.31,0.64C75.52,212.75,75.33,212.88,75.12,212.88z" fill="#000001"></path><path class="st0" d="M96.15,225.45c-0.25,0-0.47-0.19-0.5-0.45l-0.98-10.33c-0.01-0.09,0.01-0.17,0.04-0.25l0.94-2.12
		c0.07-0.16,0.22-0.27,0.39-0.29c0.17-0.02,0.34,0.04,0.45,0.18l0.94,1.14c0.05,0.06,0.09,0.14,0.1,0.22l0.98,5.02
		c0.05,0.27-0.12,0.53-0.4,0.59c-0.27,0.05-0.53-0.12-0.59-0.4l-0.96-4.9l-0.34-0.42l-0.56,1.26l0.97,10.2
		c0.03,0.27-0.18,0.52-0.45,0.54C96.18,225.45,96.16,225.45,96.15,225.45z" fill="#000001"></path><path class="st0" d="M93.01,222.25c-0.11,0-0.22-0.04-0.31-0.11c-2.39-1.88-4.86-3.82-7.51-5.36c-2.95-1.71-5.81-2.71-8.52-2.99
		c-1.47-0.15-3.11-0.11-5.14,0.13c-2.33,0.27-5.32,0.79-7.82,2.39c-0.23,0.15-0.54,0.08-0.69-0.15s-0.08-0.54,0.15-0.69
		c2.67-1.72,5.81-2.26,8.24-2.54c2.11-0.24,3.81-0.29,5.36-0.13c2.85,0.29,5.85,1.34,8.92,3.12c2.72,1.58,5.22,3.54,7.63,5.44
		c0.22,0.17,0.25,0.49,0.08,0.7C93.3,222.18,93.16,222.25,93.01,222.25z" fill="#000001"></path><path class="st0" d="M99.17,227.43C99.16,227.43,99.16,227.43,99.17,227.43c-0.28,0-0.5-0.23-0.5-0.51
		c0.02-1.98,0.05-4.22-0.89-6.07c-0.12-0.25-0.03-0.55,0.22-0.67c0.25-0.13,0.55-0.03,0.67,0.22c1.04,2.07,1.02,4.44,0.99,6.53
		C99.66,227.21,99.44,227.43,99.17,227.43z" fill="#000001"></path><path class="st0" d="M121.38,252.57c-0.13,0-0.26-0.05-0.36-0.15l-26.9-27.79c-0.19-0.2-0.19-0.51,0.01-0.71
		c0.2-0.19,0.52-0.19,0.71,0.01l26.9,27.79c0.19,0.2,0.19,0.51-0.01,0.71C121.63,252.53,121.51,252.57,121.38,252.57z" fill="#000001"></path><path class="st0" d="M133.32,303.96c-0.03,0-0.06,0-0.09-0.01l-2.96-0.51c-0.09-0.02-0.17-0.05-0.24-0.11l-56.46-48.48
		c-0.21-0.18-0.23-0.5-0.05-0.71c0.18-0.21,0.5-0.23,0.71-0.05l56.35,48.39l2.83,0.49c0.27,0.05,0.45,0.31,0.41,0.58
		C133.77,303.78,133.56,303.96,133.32,303.96z" fill="#000001"></path><path class="st0" d="M122.73,335.32c-0.23,0-0.44-0.16-0.49-0.4c-2.65-13.19-3.69-26.69-3.07-40.13c0.01-0.28,0.26-0.51,0.52-0.48
		c0.28,0.01,0.49,0.25,0.48,0.52c-0.62,13.36,0.41,26.77,3.05,39.88c0.05,0.27-0.12,0.53-0.39,0.59
		C122.8,335.32,122.77,335.32,122.73,335.32z" fill="#000001"></path><path class="st0" d="M117.42,373.52c-0.21,0-0.4-0.13-0.47-0.34c-6.79-19.58-10.21-40.02-10.18-60.74c0-0.05,0.01-0.1,0.02-0.15
		c0.1-0.33,4.13-15.33,6.24-23.21c0.07-0.27,0.35-0.42,0.61-0.35c0.27,0.07,0.42,0.35,0.35,0.61c-0.61,2.28-5.84,21.73-6.23,23.17
		c-0.03,20.59,3.38,40.89,10.12,60.34c0.09,0.26-0.05,0.55-0.31,0.64C117.53,373.51,117.48,373.52,117.42,373.52z" fill="#000001"></path><path class="st0" d="M109.76,301.37c-0.2,0-0.39-0.12-0.46-0.32l-9.04-22.71c-0.1-0.26,0.02-0.55,0.28-0.65
		c0.26-0.1,0.55,0.02,0.65,0.28l9.04,22.71c0.1,0.26-0.02,0.55-0.28,0.65C109.88,301.36,109.82,301.37,109.76,301.37z" fill="#000001"></path><path class="st0" d="M112.82,306.57c-0.11,0-0.22-0.04-0.31-0.11c-0.22-0.17-0.26-0.48-0.08-0.7c1.47-1.88,3.12-3.64,4.9-5.25
		c0.21-0.18,0.52-0.17,0.71,0.04c0.19,0.21,0.17,0.52-0.04,0.71c-1.73,1.56-3.34,3.29-4.78,5.12
		C113.12,306.51,112.97,306.57,112.82,306.57z" fill="#000001"></path><path class="st0" d="M105.89,309.52c-0.13,0-0.26-0.05-0.35-0.15l-10.02-10.11c-0.11-0.11-0.16-0.26-0.14-0.42l2.09-16.05
		l-8.68-3.46c-0.18-0.07-0.3-0.23-0.31-0.42l-0.98-11.31c-0.02-0.28,0.18-0.52,0.46-0.54c0.28-0.03,0.52,0.18,0.54,0.46l0.95,11
		l8.75,3.49c0.21,0.08,0.34,0.3,0.31,0.53l-2.11,16.19l9.85,9.93c0.19,0.2,0.19,0.51,0,0.71
		C106.14,309.47,106.01,309.52,105.89,309.52z" fill="#000001"></path><path class="st0" d="M112.35,318.94c-1.4,0-2.5-1.81-2.5-4.12s1.1-4.12,2.5-4.12s2.5,1.81,2.5,4.12S113.75,318.94,112.35,318.94z
		 M112.35,311.69c-0.71,0-1.5,1.28-1.5,3.12s0.79,3.12,1.5,3.12s1.5-1.28,1.5-3.12S113.06,311.69,112.35,311.69z" fill="#000001"></path><path class="st0" d="M114.03,340.93c-0.65,0-1.28-0.39-1.8-1.1c-0.51-0.7-0.85-1.66-0.98-2.71l0,0c-0.27-2.3,0.6-4.23,1.99-4.39
		c1.4-0.17,2.7,1.5,2.97,3.8c0.12,1.04,0.02,2.06-0.31,2.86c-0.37,0.9-0.96,1.44-1.68,1.53
		C114.17,340.92,114.1,340.93,114.03,340.93z M112.25,337c0.1,0.87,0.39,1.68,0.8,2.24c0.34,0.47,0.73,0.73,1.06,0.68
		c0.34-0.04,0.66-0.37,0.87-0.91c0.26-0.64,0.35-1.5,0.24-2.37c-0.22-1.83-1.13-2.99-1.86-2.92
		C112.66,333.8,112.03,335.17,112.25,337L112.25,337z" fill="#000001"></path><path class="st0" d="M238.07,333.24c-0.38,0-0.76-0.04-1.12-0.1c-0.44-0.08-0.87-0.18-1.31-0.29c-0.97-0.24-1.89-0.46-2.8-0.35
		c-0.27,0.03-0.53,0.09-0.8,0.15c-0.66,0.15-1.33,0.3-2.05,0.12c-0.76-0.2-1.3-0.71-1.82-1.2c-0.43-0.41-0.84-0.8-1.33-0.95
		c-0.64-0.2-1.35,0.02-2.11,0.26c-0.71,0.22-1.44,0.45-2.21,0.38c-1.82-0.17-3-1.9-3.23-3.52s0.28-3.21,0.73-4.61
		c0.02-0.07,0.06-0.13,0.11-0.19c1.57-1.72,2.88-2.93,4.52-3.66c1.97-0.89,4.12-0.79,5.6,0.24c0.12,0.08,0.23,0.17,0.35,0.26
		c0.24,0.19,0.47,0.37,0.71,0.45c0.2,0.07,0.44,0.09,0.7,0.11c0.16,0.01,0.33,0.03,0.49,0.05c1.5,0.23,2.75,1.55,2.91,3.05
		c0,0,0.01,0.1,0.01,0.1c0.01,0.1,0.03,0.31,0.07,0.35c0.05,0.04,0.35-0.01,0.47-0.04l0.12-0.02c1.74-0.29,3.32,0.87,4.11,2.16
		c0.75,1.21,1.02,2.63,1.23,3.93c1.31,0.04,2.13-0.76,2.59-1.46c0.09-0.14,0.18-0.29,0.26-0.44c0.27-0.46,0.54-0.94,1.01-1.29
		c0.45-0.34,0.96-0.48,1.45-0.61c0.36-0.09,0.69-0.19,0.97-0.35c0.48-0.28,0.82-0.79,1.18-1.32c0.12-0.18,0.25-0.37,0.37-0.54
		c0.53-0.72,1.18-1.33,1.81-1.93c0.52-0.49,1.02-0.95,1.45-1.48c0.8-0.97,1.5-2.54,0.84-3.77c-0.02-0.03-0.03-0.07-0.04-0.1
		c-0.42-0.66-3.96-4.69-6.35-7.37c-2.95,2.08-6.35,3.58-9.86,4.37c-0.78,0.17-1.68,0.34-2.58,0.1c-1.06-0.29-1.82-1.15-1.85-2.1
		c-0.03-1.02,0.73-1.8,1.29-2.38c1.35-1.39,2.57-2.91,3.63-4.52c-0.9-0.61-1.91-0.49-2.64-0.27c-1.06,0.33-2.01,1-2.92,1.65
		l-4.12,2.91c-0.42,0.3-0.94,0.66-1.58,0.73c-0.98,0.1-1.79-0.5-2.49-1.08c-0.21-0.18-0.24-0.49-0.06-0.7
		c0.18-0.21,0.49-0.24,0.7-0.06c0.56,0.47,1.15,0.91,1.74,0.85c0.38-0.04,0.77-0.31,1.11-0.55l4.12-2.91
		c0.93-0.66,1.99-1.41,3.2-1.79c1.52-0.48,2.92-0.21,3.94,0.75c0.18,0.16,0.21,0.43,0.08,0.63c-1.15,1.82-2.5,3.52-4,5.06
		c-0.48,0.49-1.03,1.05-1.01,1.64c0.02,0.57,0.59,1.03,1.11,1.17c0.67,0.18,1.44,0.04,2.1-0.11c3.53-0.79,6.94-2.33,9.86-4.46
		c0.21-0.15,0.5-0.12,0.67,0.07c5.29,5.92,6.54,7.47,6.82,8l0.01,0c0.89,1.67,0.05,3.67-0.95,4.88c-0.47,0.57-1.01,1.08-1.54,1.57
		c-0.62,0.58-1.21,1.14-1.69,1.79c-0.12,0.16-0.23,0.33-0.35,0.51c-0.41,0.61-0.83,1.24-1.51,1.63c-0.39,0.23-0.81,0.34-1.21,0.44
		c-0.42,0.11-0.81,0.22-1.11,0.44c-0.31,0.23-0.52,0.6-0.75,0.99c-0.09,0.16-0.19,0.33-0.29,0.48c-0.93,1.43-2.32,2.1-3.93,1.88
		c-0.22-0.03-0.39-0.2-0.42-0.42c-0.22-1.37-0.44-2.78-1.16-3.95c-0.6-0.97-1.82-1.92-3.09-1.7l-0.11,0.02
		c-0.37,0.07-0.92,0.17-1.33-0.22c-0.32-0.29-0.35-0.69-0.38-0.99c-0.12-1.14-1.03-2.1-2.08-2.26c-0.14-0.02-0.28-0.03-0.41-0.04
		c-0.29-0.02-0.63-0.05-0.95-0.17c-0.39-0.14-0.71-0.39-0.99-0.6c-0.1-0.08-0.2-0.16-0.31-0.23c-1.43-1-3.33-0.73-4.62-0.15
		c-1.46,0.65-2.66,1.77-4.12,3.34c-0.41,1.27-0.84,2.71-0.66,4.07c0.17,1.2,1.04,2.55,2.33,2.67c0.57,0.06,1.18-0.14,1.82-0.34
		c0.87-0.27,1.77-0.55,2.71-0.26c0.7,0.22,1.22,0.71,1.71,1.18c0.45,0.43,0.88,0.83,1.39,0.96c0.48,0.12,1.01,0,1.58-0.12
		c0.3-0.07,0.6-0.13,0.9-0.17c1.09-0.14,2.14,0.12,3.16,0.37c0.42,0.1,0.83,0.2,1.25,0.28c1.22,0.21,2.75,0.08,3.39-0.95
		c0.15-0.23,0.45-0.31,0.69-0.16c0.23,0.15,0.31,0.45,0.16,0.69C240.66,332.85,239.34,333.24,238.07,333.24z" fill="#000001"></path><path class="st0" d="M249.41,307.83c-0.14,0-0.27-0.05-0.36-0.16c-1.7-1.79-4.16-2.83-6.32-3.74c-0.57-0.24-1.28-0.54-1.9-0.42
		c-0.36,0.07-0.71,0.27-1.09,0.49c-0.35,0.21-0.72,0.42-1.14,0.55c-0.27,0.08-0.54-0.07-0.62-0.34c-0.08-0.26,0.07-0.54,0.34-0.62
		c0.31-0.09,0.61-0.27,0.92-0.45c0.43-0.25,0.87-0.51,1.41-0.61c0.91-0.17,1.81,0.21,2.46,0.49c2.18,0.92,4.63,1.95,6.46,3.76
		l4.51-1.1c0.27-0.06,0.54,0.1,0.6,0.37c0.06,0.27-0.1,0.54-0.37,0.6l-4.79,1.16C249.49,307.83,249.45,307.83,249.41,307.83z" fill="#000001"></path><path class="st0" d="M249.94,326.19c-0.22,0-0.42-0.15-0.48-0.37c-0.07-0.27,0.09-0.54,0.36-0.61l10.56-2.76
		c0.26-0.08,0.54,0.09,0.61,0.36c0.07,0.27-0.09,0.54-0.36,0.61l-10.56,2.76C250.02,326.18,249.98,326.19,249.94,326.19z" fill="#000001"></path><path class="st0" d="M239.11,322.48c-0.11,0-0.23-0.04-0.32-0.12c-0.21-0.18-0.24-0.49-0.06-0.71l7.92-9.41
		c0.18-0.21,0.49-0.24,0.7-0.06s0.24,0.49,0.06,0.71l-7.92,9.41C239.39,322.42,239.25,322.48,239.11,322.48z" fill="#000001"></path><path class="st0" d="M248.96,321.23c-0.14,0-0.28-0.06-0.38-0.17l-3.33-3.78c-0.18-0.21-0.16-0.52,0.04-0.71s0.52-0.16,0.71,0.04
		l3.33,3.78c0.18,0.21,0.16,0.52-0.04,0.71C249.2,321.19,249.08,321.23,248.96,321.23z" fill="#000001"></path><path class="st0" d="M245.25,325.18c-0.14,0-0.29-0.06-0.38-0.18l-2.5-3c-0.18-0.21-0.15-0.53,0.07-0.7s0.53-0.15,0.7,0.07l2.5,3
		c0.18,0.21,0.15,0.53-0.06,0.7C245.48,325.14,245.36,325.18,245.25,325.18z" fill="#000001"></path><path class="st0" d="M225.07,327.95c-0.08,0-0.16-0.02-0.23-0.06c-0.24-0.13-0.34-0.43-0.21-0.68c0.72-1.36,1.57-2.66,2.53-3.88
		c0.17-0.22,0.49-0.25,0.7-0.08c0.22,0.17,0.25,0.49,0.08,0.7c-0.92,1.17-1.74,2.42-2.43,3.73
		C225.42,327.85,225.25,327.95,225.07,327.95z" fill="#000001"></path><path class="st0" d="M232.78,329.37c-0.08,0-0.17-0.02-0.25-0.06c-0.24-0.14-0.33-0.44-0.19-0.68c0.54-0.96,1.02-1.96,1.43-2.98
		c0.1-0.26,0.4-0.38,0.65-0.28c0.26,0.1,0.38,0.4,0.28,0.65c-0.43,1.06-0.93,2.1-1.49,3.09
		C233.12,329.28,232.95,329.37,232.78,329.37z" fill="#000001"></path><path class="st0" d="M354.62,173.12c-0.23,0-0.44-0.16-0.49-0.4c-2.11-9.89-2.56-19.9-1.35-29.77c0.02-0.2,0.17-0.37,0.36-0.42
		c0.95-0.27,1.93-0.54,3.4-0.62c0.16-0.01,0.33,0.07,0.43,0.2c5.48,7.43,15.27,11.4,24.38,9.9c0.27-0.05,0.53,0.14,0.57,0.41
		s-0.14,0.53-0.41,0.57c-9.38,1.55-19.46-2.5-25.18-10.08c-1.06,0.08-1.83,0.27-2.59,0.48c-1.14,9.65-0.68,19.44,1.38,29.1
		c0.06,0.27-0.12,0.54-0.38,0.59C354.69,173.11,354.65,173.12,354.62,173.12z" fill="#000001"></path><path class="st0" d="M387.22,173.31c-0.23,0-0.46-0.02-0.69-0.05c-0.27-0.04-0.46-0.3-0.42-0.57c0.04-0.27,0.3-0.46,0.57-0.42
		c1.65,0.26,3.5-0.74,4.52-2.42c0.84-1.39,1.22-3.2,1.16-5.54c-0.05-1.94-0.36-3.87-0.92-5.73c-0.34-1.13-0.92-2.75-2.1-3.84
		c-1.1-1.02-2.64-1.38-3.78-0.87c-1.08,0.49-1.72,1.66-2.06,2.56c-0.19,0.5-0.34,1.03-0.5,1.54c-0.2,0.68-0.4,1.38-0.7,2.05
		c-0.1,0.22-0.39,0.88-1.05,0.99c-0.35,0.05-1-0.02-1.51-1.12c-0.95-2.06-1.73-4.2-2.32-6.39c-0.07-0.27,0.08-0.54,0.35-0.61
		c0.27-0.07,0.54,0.08,0.61,0.35c0.58,2.13,1.34,4.23,2.27,6.23c0.18,0.4,0.4,0.57,0.44,0.55c0.02,0,0.13-0.04,0.29-0.4
		c0.27-0.61,0.46-1.25,0.65-1.93c0.16-0.53,0.32-1.08,0.52-1.62c0.59-1.54,1.48-2.62,2.59-3.12c1.74-0.78,3.7-0.04,4.87,1.04
		c1.35,1.26,2,3.05,2.37,4.28c0.59,1.95,0.91,3.97,0.96,6c0.07,2.54-0.36,4.53-1.3,6.09C390.95,172.19,389.07,173.31,387.22,173.31z
		" fill="#000001"></path><path class="st0" d="M385.15,166.09c-0.25,0-0.46-0.19-0.5-0.44c-0.32-2.65,0.25-5.37,1.59-7.67c0.14-0.24,0.45-0.32,0.68-0.18
		c0.24,0.14,0.32,0.45,0.18,0.68c-1.23,2.11-1.75,4.62-1.46,7.05c0.03,0.27-0.16,0.52-0.44,0.56
		C385.19,166.09,385.18,166.09,385.15,166.09z" fill="#000001"></path><path class="st0" d="M387.1,167.79c-0.06,0-0.13-0.01-0.19-0.04c-0.25-0.1-0.38-0.4-0.27-0.65c0.62-1.51,0.64-3.25,0.06-4.78
		c-0.1-0.26,0.03-0.55,0.29-0.64c0.26-0.1,0.55,0.03,0.65,0.29c0.67,1.76,0.64,3.77-0.07,5.51
		C387.48,167.68,387.3,167.79,387.1,167.79z" fill="#000001"></path><path class="st0" d="M347.3,186.96c-0.16,0-0.31-0.07-0.41-0.21c-0.14-0.19-0.12-0.46,0.04-0.63c6.54-6.95,10.12-16.78,9.56-26.31
		c-0.02-0.28,0.19-0.51,0.47-0.53c0.26-0.01,0.51,0.19,0.53,0.47c0.52,9.02-2.55,18.3-8.29,25.29l16.85-7.65
		c0.25-0.11,0.55,0,0.66,0.25c0.11,0.25,0,0.55-0.25,0.66l-18.97,8.61C347.44,186.95,347.37,186.96,347.3,186.96z" fill="#000001"></path><path class="st0" d="M368.12,202.3c-0.97,0-1.85-0.19-2.65-0.56c-2.18-1.02-3.39-3.3-4.37-5.61c-1.8-4.25-3.32-8.66-4.52-13.12
		c-0.07-0.27,0.09-0.54,0.35-0.61c0.26-0.07,0.54,0.09,0.61,0.35c1.18,4.41,2.69,8.78,4.47,12.99c0.84,1.98,1.91,4.18,3.88,5.1
		c1.55,0.72,3.53,0.6,6.04-0.38c1.63-0.63,3.28-1.48,5.35-2.73c3.81-2.31,7.41-5.01,10.69-8.02c0.2-0.19,0.52-0.17,0.71,0.03
		c0.19,0.2,0.17,0.52-0.03,0.71c-3.33,3.06-6.98,5.8-10.85,8.14c-2.13,1.29-3.83,2.16-5.51,2.81
		C370.74,202,369.36,202.3,368.12,202.3z" fill="#000001"></path><path class="st0" d="M406.72,204.46c-0.21,0-0.4-0.13-0.47-0.34l-7.87-22.63c-1.48-3.8-4.47-6.96-8.2-8.65
		c-0.25-0.11-0.36-0.41-0.25-0.66c0.11-0.25,0.42-0.36,0.66-0.25c3.97,1.8,7.15,5.16,8.73,9.22l7.88,22.64
		c0.09,0.26-0.05,0.55-0.31,0.64C406.83,204.45,406.78,204.46,406.72,204.46z" fill="#000001"></path><path class="st0" d="M381.2,213.51c-0.08,0-0.16-0.02-0.23-0.06c-0.12-0.07-0.21-0.18-0.25-0.32c-1.22-4.63-2.82-9.2-4.77-13.56
		c-0.11-0.25,0-0.55,0.25-0.66c0.25-0.11,0.55,0,0.66,0.25c1.9,4.25,3.47,8.69,4.68,13.19l25.06-8.97c0.26-0.09,0.55,0.04,0.64,0.3
		c0.09,0.26-0.04,0.55-0.3,0.64l-25.57,9.15C381.32,213.5,381.26,213.51,381.2,213.51z" fill="#000001"></path><path class="st0" d="M359.92,158.34c-0.17,0-0.33-0.09-0.43-0.24c-0.14-0.24-0.07-0.54,0.17-0.69c2.22-1.35,4.97-1.87,7.53-1.42
		c0.27,0.05,0.45,0.31,0.41,0.58c-0.05,0.27-0.31,0.45-0.58,0.41c-2.33-0.41-4.82,0.07-6.84,1.29
		C360.1,158.31,360.01,158.34,359.92,158.34z" fill="#000001"></path><path class="st0" d="M356.14,159.15c-0.09,0-0.17-0.02-0.25-0.07c-0.93-0.55-2-0.87-3.07-0.94c-0.28-0.02-0.49-0.25-0.47-0.53
		s0.23-0.48,0.53-0.47c1.24,0.07,2.45,0.45,3.52,1.08c0.24,0.14,0.32,0.45,0.18,0.68C356.48,159.06,356.31,159.15,356.14,159.15z" fill="#000001"></path><path class="st0" d="M377.47,229.82c-0.11,0-0.21-0.03-0.3-0.1c-0.22-0.17-0.26-0.48-0.09-0.7c2.27-2.96,4.79-6.06,7.81-8.7
		c3.28-2.88,6.73-4.82,10.23-5.76c6.95-1.86,14.95,0.41,19.88,5.64c0.19,0.2,0.18,0.52-0.02,0.71c-0.2,0.19-0.52,0.18-0.71-0.02
		c-4.7-4.98-12.29-7.14-18.9-5.36c-3.35,0.9-6.66,2.76-9.83,5.54c-2.95,2.59-5.43,5.65-7.67,8.56
		C377.76,229.75,377.62,229.82,377.47,229.82z" fill="#000001"></path><path class="st0" d="M380.48,224.52c-0.26,0-0.49-0.21-0.5-0.47l-0.49-9.64c0-0.09,0.01-0.17,0.05-0.25l0.77-1.56
		c0.12-0.25,0.42-0.35,0.67-0.23c0.25,0.12,0.35,0.42,0.23,0.67l-0.72,1.45l0.48,9.51c0.01,0.28-0.2,0.51-0.47,0.52
		C380.5,224.52,380.49,224.52,380.48,224.52z" fill="#000001"></path><path class="st0" d="M409.41,215.76c-0.18,0-0.36-0.1-0.45-0.28c-0.12-0.25-0.02-0.55,0.23-0.67c0.64-0.32,1.14-0.95,1.29-1.66
		c0-0.01,0.01-0.02,0.01-0.04c0.01-0.58-0.88-4.21-1.78-7.46c-0.49-0.7-1.2-1.22-2.01-1.49c-0.26-0.09-0.41-0.37-0.32-0.63
		c0.08-0.26,0.37-0.4,0.63-0.32c1.04,0.34,1.96,1.03,2.57,1.95c0.03,0.04,0.05,0.09,0.07,0.15c1.83,6.62,1.89,7.77,1.8,8.09
		c-0.22,0.99-0.9,1.86-1.81,2.31C409.56,215.74,409.49,215.76,409.41,215.76z" fill="#000001"></path><path class="st0" d="M411.93,329.16c-0.06,0-0.12-0.01-0.17-0.03c-3.77-1.41-6.28-4.32-7.72-6.51c-1.59-2.42-2.8-5.28-3.94-9.26
		c-0.03-0.12-0.02-0.24,0.03-0.35l14.12-30.2l-26.35-41.97c-0.15-0.23-0.08-0.54,0.16-0.69c0.23-0.15,0.54-0.08,0.69,0.16l26.5,42.2
		c0.09,0.14,0.1,0.32,0.03,0.48l-14.16,30.27c1.09,3.79,2.26,6.51,3.76,8.81c1.32,2.01,3.59,4.66,6.95,6.01
		c2.28-2.22,22.59-23.38,33.45-34.72c2.48-4.26,3.34-9.46,2.35-14.29c-1.05-1.83-32.06-55.57-32.38-56.12
		c-0.02-0.04-0.04-0.08-0.05-0.13l-2.14-8.63c-0.24-0.45-0.47-0.84-0.8-1c-0.21-0.1-0.47-0.11-0.69-0.02
		c-0.25,0.11-0.55-0.01-0.66-0.27c-0.11-0.25,0.01-0.55,0.27-0.66c0.48-0.2,1.04-0.19,1.51,0.04c0.67,0.33,1.02,1,1.28,1.49
		c0.02,0.04,0.03,0.07,0.04,0.11l2.14,8.62c9.75,16.9,32.34,56.04,32.4,56.16c0.02,0.04,0.03,0.08,0.04,0.12
		c1.07,5.11,0.16,10.62-2.48,15.12c-0.02,0.03-0.04,0.06-0.07,0.09c-33.58,35.07-33.81,35.11-34.02,35.14
		C411.98,329.16,411.96,329.16,411.93,329.16z" fill="#000001"></path><path class="st0" d="M422.45,293.23c-0.11,0-0.21-0.03-0.3-0.1c-3.32-2.54-5.96-6.1-7.42-10.02c-0.07-0.2-0.01-0.42,0.15-0.56
		s0.4-0.15,0.58-0.04c4.57,2.77,10.39,3.6,15.55,2.23c0.27-0.07,0.54,0.09,0.61,0.36c0.07,0.27-0.09,0.54-0.36,0.61
		c-4.95,1.31-10.48,0.7-15.06-1.64c1.46,3.23,3.75,6.12,6.55,8.27c0.22,0.17,0.26,0.48,0.09,0.7
		C422.75,293.16,422.6,293.23,422.45,293.23z" fill="#000001"></path><path class="st0" d="M262.71,324.17c-0.2,0-0.38-0.12-0.46-0.31l-8.02-19.04c-0.05-0.12-0.05-0.27,0-0.39
		c0.05-0.12,0.16-0.22,0.28-0.27l75.94-29.02l39.43-52.12c2.65-2.62,6.24-4.15,9.89-4.25c0,0,0.01,0,0.01,0
		c0.27,0,0.49,0.21,0.5,0.49c0.01,0.28-0.21,0.51-0.49,0.51c-3.4,0.09-6.74,1.51-9.17,3.9l-39.47,52.18
		c-0.06,0.07-0.13,0.13-0.22,0.17l-75.59,28.88l7.64,18.14c27.39-8.9,78.69-25.62,80.47-26.42c0.05-0.03,0.11-0.06,0.18-0.07
		c1.97-0.37,3.81-1.39,5.16-2.87l16.45-17.51c0.19-0.2,0.51-0.21,0.71-0.02s0.21,0.5,0.02,0.71l-16.44,17.5
		c-1.5,1.63-3.52,2.76-5.71,3.17l-0.01-0.05c-1.76,0.75-12.51,4.42-80.95,26.65C262.81,324.16,262.76,324.17,262.71,324.17z" fill="#000001"></path><path class="st0" d="M365.48,284.64c-0.02,0-0.03,0-0.04,0c-0.28-0.02-0.48-0.27-0.45-0.54l3.94-44.47
		c0.02-0.28,0.28-0.48,0.54-0.45c0.28,0.02,0.48,0.27,0.45,0.54l-3.94,44.47C365.95,284.44,365.74,284.64,365.48,284.64z" fill="#000001"></path><path class="st0" d="M384.97,370.4c-8.43,0-16.78-1.81-24.49-5.33c-0.13-0.06-0.24-0.18-0.27-0.32c-0.33-1.21-0.89-2.38-1.49-3.63
		c-0.9-1.87-1.83-3.79-1.94-5.91c-0.12-2.17,0.65-4.23,1.38-6.21c0.16-0.42,0.31-0.84,0.46-1.26c1.22-3.49,1.52-6.43,0.93-8.98
		c-0.06-0.23-0.12-0.47-0.18-0.7c-0.18-0.67-0.37-1.36-0.38-2.1c-0.01-1.08,0.36-2.09,0.72-3.06l0.06-0.17
		c2.31-6.24,3.43-12.78,3.33-19.44c0-0.28,0.22-0.5,0.49-0.51c0,0,0.01,0,0.01,0c0.27,0,0.5,0.22,0.5,0.49
		c0.1,6.78-1.04,13.44-3.39,19.8l-0.06,0.17c-0.33,0.88-0.67,1.8-0.66,2.7c0.01,0.61,0.17,1.21,0.34,1.85
		c0.07,0.24,0.13,0.49,0.19,0.73c0.64,2.74,0.33,5.86-0.96,9.54c-0.15,0.42-0.31,0.85-0.46,1.28c-0.7,1.89-1.43,3.84-1.32,5.81
		c0.1,1.91,0.99,3.75,1.84,5.52c0.56,1.16,1.13,2.36,1.49,3.57c9.54,4.31,20.07,5.96,30.48,4.76c4.74-0.54,9.47-1.69,13.64-2.7
		c9.27-2.24,17.43-4.58,23.25-10.41c1.5-6,3.7-14.96,3.86-16.02c-0.02-0.11,0.01-0.23,0.07-0.33c0.7-1.11,0.15-2.67-0.54-3.66
		c-0.34-0.5-0.74-0.95-1.16-1.43c-0.58-0.67-1.18-1.36-1.63-2.17c-1.29-2.34-1.03-5.17-0.81-7.44l1.29-13.75
		c0.03-0.27,0.28-0.47,0.54-0.45c0.27,0.03,0.48,0.27,0.45,0.54l-1.29,13.75c-0.2,2.13-0.45,4.79,0.69,6.86
		c0.39,0.72,0.93,1.33,1.51,1.99c0.42,0.48,0.85,0.98,1.23,1.52c0.9,1.29,1.52,3.22,0.58,4.74c-0.12,1.23-1.02,4.85-3.86,16.22
		c-0.02,0.09-0.07,0.17-0.13,0.23c-6.02,6.09-14.35,8.48-23.83,10.78c-4.2,1.02-8.96,2.17-13.76,2.72
		C389.45,370.27,387.2,370.4,384.97,370.4z" fill="#000001"></path><path class="st0" d="M405.45,352.96c-0.33,0-0.67-0.03-1.01-0.08c-1.11-0.18-1.93-0.69-2.31-1.44c-0.74-1.44,0.39-3.07,0.76-3.61
		c3-4.33,7.06-7.82,10.99-11.19c3.77-3.23,7.66-6.57,10.56-10.62c0.16-0.23,0.47-0.28,0.7-0.12c0.22,0.16,0.28,0.47,0.12,0.7
		c-2.97,4.15-6.91,7.53-10.72,10.8c-3.88,3.33-7.9,6.77-10.82,11c-0.78,1.13-1.01,1.97-0.69,2.58c0.33,0.64,1.22,0.85,1.58,0.9
		c2.71,0.44,5.36-1.38,7.69-2.97c3.93-2.69,8.08-5.13,12.33-7.25c0.25-0.12,0.55-0.02,0.67,0.22c0.12,0.25,0.02,0.55-0.22,0.67
		c-4.22,2.1-8.32,4.51-12.2,7.17C410.65,351.26,408.16,352.96,405.45,352.96z" fill="#000001"></path><path class="st0" d="M361.15,355.65c-0.15,0-0.31-0.07-0.4-0.21c-0.16-0.22-0.11-0.54,0.11-0.7c1.85-1.35,4.04-2.08,6.16-2.8
		l0.93-0.32c0.99-0.34,1.94-0.7,2.7-1.31c0.8-0.64,1.25-1.51,1.21-2.32c-0.06-1.11-0.98-2.03-1.91-2.88l-0.63-0.57
		c-1.95-1.77-3.98-3.6-5.68-5.69c-0.17-0.21-0.14-0.53,0.07-0.7c0.21-0.17,0.53-0.14,0.7,0.07c1.65,2.03,3.65,3.83,5.57,5.58
		l0.63,0.57c1.04,0.95,2.16,2.08,2.24,3.56c0.06,1.13-0.53,2.31-1.58,3.15c-0.89,0.71-1.97,1.12-3,1.47l-0.94,0.32
		c-2.04,0.69-4.16,1.4-5.89,2.66C361.36,355.62,361.26,355.65,361.15,355.65z" fill="#000001"></path><path class="st0" d="M391.23,313.18c-0.11,0-0.22-0.04-0.31-0.11c-7.01-5.52-12.37-12.85-15.52-21.19
		c-0.1-0.26,0.03-0.55,0.29-0.64c0.26-0.1,0.55,0.03,0.64,0.29c3.08,8.17,8.34,15.35,15.2,20.76c0.22,0.17,0.25,0.49,0.08,0.7
		C391.52,313.12,391.37,313.18,391.23,313.18z" fill="#000001"></path><path class="st0" d="M389.01,315.04c-0.04,0-0.08,0-0.12-0.01c-5.88-1.42-11.04-5.09-15.59-8.33c-0.23-0.16-0.28-0.47-0.12-0.7
		c0.16-0.23,0.47-0.28,0.7-0.12c4.48,3.18,9.56,6.79,15.25,8.17c0.27,0.07,0.43,0.34,0.37,0.6
		C389.44,314.89,389.24,315.04,389.01,315.04z" fill="#000001"></path><path class="st0" d="M395.55,342.64c-0.11,0-0.21-0.03-0.3-0.1c-0.14-0.11-0.22-0.28-0.2-0.46c0.04-0.38,0.88-8.09,1.25-11.44
		l-6.14,6.8c-1.33,1.47-2.82,2.8-4.66,2.64c-0.18-0.02-0.33-0.12-0.41-0.29c-0.11-0.23-0.36-0.76,4.58-11.41
		c-2.45,1.39-5.05,2.52-7.75,3.36c-0.77,0.24-1.67,0.49-2.6,0.49c-1.07,0-2.01-0.34-2.65-0.97c-0.16-0.16-0.2-0.4-0.09-0.6
		c0.06-0.12,0.18-0.33,10.4-8.08l-12.46-2.73c-0.2-0.04-0.35-0.2-0.38-0.39c-0.2-1.05,0.59-2,1.45-2.36
		c0.83-0.35,1.72-0.31,2.5-0.26c7.56,0.38,15.49,0.44,21.88-3.25c0.24-0.14,0.54-0.06,0.68,0.18c0.14,0.24,0.06,0.54-0.18,0.68
		c-6.63,3.83-14.72,3.77-22.43,3.38c-0.71-0.04-1.45-0.07-2.06,0.19c-0.4,0.17-0.77,0.54-0.85,0.94l13.13,2.87
		c0.19,0.04,0.34,0.19,0.38,0.38s-0.03,0.39-0.19,0.51c-3.7,2.8-9.07,6.9-10.64,8.15c0.42,0.23,0.94,0.36,1.5,0.36
		c0.79,0,1.61-0.23,2.31-0.45c3.13-0.97,6.14-2.35,8.92-4.09c0.19-0.12,0.43-0.1,0.6,0.05s0.22,0.38,0.12,0.59
		c-2.22,4.74-4.58,10.07-5.12,11.73c1.18-0.17,2.27-1.19,3.27-2.3l7.18-7.94c0.14-0.16,0.38-0.21,0.58-0.12
		c0.2,0.09,0.32,0.29,0.29,0.51c0,0-0.98,9-1.31,12.02c1.07-0.74,1.99-1.98,2.78-3.78c0.88-2,1.48-4.13,1.99-6.14
		c0.04-0.17,0.18-0.31,0.35-0.36c0.17-0.05,0.36,0,0.49,0.12c1,0.98,2.57,1.34,3.89,0.88c0.48-0.16,0.96-0.43,1.48-0.82
		c1.12-0.84,2.02-1.95,2.61-3.22c0.12-0.25,0.41-0.36,0.66-0.24c0.25,0.12,0.36,0.41,0.24,0.66c-0.66,1.42-1.67,2.67-2.92,3.6
		c-0.6,0.45-1.18,0.77-1.76,0.97c-1.42,0.48-3.04,0.23-4.27-0.6c-0.48,1.83-1.05,3.73-1.85,5.54c-1.1,2.48-2.44,4.03-4.1,4.74
		C395.68,342.63,395.62,342.64,395.55,342.64z" fill="#000001"></path><path class="st0" d="M336.88,284.38c-0.22,0-0.42-0.14-0.48-0.36c-0.76-2.7-2.33-5.22-4.41-7.09c-0.21-0.18-0.22-0.5-0.04-0.71
		c0.19-0.21,0.5-0.22,0.71-0.04c2.23,2,3.9,4.69,4.71,7.57c0.07,0.27-0.08,0.54-0.35,0.62
		C336.97,284.37,336.92,284.38,336.88,284.38z" fill="#000001"></path><path class="st3" d="M213.29,298.18c-0.14,0-0.29-0.06-0.39-0.18l-8.48-10.22c-0.15-0.18-0.15-0.45,0-0.64
		c0.15-0.19,0.41-0.24,0.62-0.12l14.42,7.76l-11.22-32.7c-0.08-0.24,0.03-0.5,0.25-0.61c0.23-0.11,0.5-0.04,0.64,0.17l18.89,27.86
		l0.96-10.35c0.02-0.2,0.16-0.38,0.36-0.43c0.2-0.06,0.41,0.01,0.53,0.17l4.99,6.36l11.43-30.68c0.08-0.22,0.31-0.35,0.54-0.32
		c0.23,0.04,0.41,0.23,0.42,0.47l2.17,39.67c0.02,0.28-0.2,0.51-0.47,0.53c-0.27,0.02-0.51-0.2-0.53-0.47l-2.04-37.28l-10.9,29.27
		c-0.06,0.17-0.21,0.29-0.39,0.32c-0.18,0.03-0.36-0.04-0.47-0.19l-4.77-6.08l-0.97,10.49c-0.02,0.21-0.17,0.39-0.37,0.44
		c-0.2,0.05-0.42-0.03-0.54-0.2l-17.57-25.92l10.41,30.37c0.07,0.19,0.01,0.41-0.15,0.54c-0.16,0.13-0.38,0.16-0.56,0.06
		l-13.28-7.15l6.84,8.24c0.18,0.21,0.15,0.53-0.07,0.7C213.51,298.14,213.4,298.18,213.29,298.18z" fill="#FFE01B"></path></g></svg>